<?xml version="1.0" encoding="utf-8"?>
<!-- Generator: Adobe Illustrator 22.1.0, SVG Export Plug-In . SVG Version: 6.00 Build 0)  -->
<svg version="1.1" id="Layer_1" xmlns="http://www.w3.org/2000/svg" xmlns:xlink="http://www.w3.org/1999/xlink" x="0px" y="0px"
	 viewBox="0 0 24 24" style="enable-background:new 0 0 24 24;" xml:space="preserve">
<style type="text/css">
	.st0{fill:none;}
</style>
<path d="M16.5,20.2h1.2c0.6,0,1.1-0.5,1.2-1.1l1.2-12.4h-3.8v-3H15v3h-3.7l0.2,1.8c1.3,0.4,2.5,1,3.2,1.7c1.1,1.1,1.8,2.2,1.8,4
	C16.5,14.2,16.5,20.2,16.5,20.2z M3.8,19.5v-0.7H15v0.7c0,0.4-0.3,0.8-0.8,0.8H4.5C4.1,20.2,3.8,19.9,3.8,19.5z M15,14.2
	c0-6-11.3-6-11.3,0H15z M3.8,15.7H15v1.5H3.8L3.8,15.7z"/>
<path class="st0" d="M0,0h24v24H0V0z"/>
</svg>
